<?xml version="1.0" standalone="no"?>
<!DOCTYPE svg PUBLIC "-//W3C//DTD SVG 20010904//EN"
 "http://www.w3.org/TR/2001/REC-SVG-20010904/DTD/svg10.dtd">
<svg version="1.0" xmlns="http://www.w3.org/2000/svg"
 width="256.000000pt" height="213.000000pt" viewBox="0 0 256.000000 213.000000"
 preserveAspectRatio="xMidYMid meet">

<g transform="translate(0.000000,213.000000) scale(0.100000,-0.100000)"
fill="#000000" stroke="none">
<path d="M1408 2114 c-19 -10 -94 -126 -259 -402 -127 -213 -345 -575 -483
-804 -461 -766 -476 -792 -476 -820 0 -40 9 -57 40 -73 22 -12 102 -12 516 -5
854 17 1283 40 1450 80 258 61 388 224 355 444 -20 139 -72 263 -206 491 -243
417 -512 773 -741 984 -126 115 -152 129 -196 105z m168 -306 c244 -252 493
-604 712 -1008 87 -160 126 -345 88 -418 -47 -89 -173 -141 -391 -162 -291
-27 -1144 -55 -1442 -48 l-133 3 42 65 c22 36 239 396 481 800 463 773 523
870 536 870 4 0 53 -46 107 -102z"/>
</g>
</svg>
